<svg width="1400" height="900" viewBox="0 0 1400 900" fill="none" xmlns="http://www.w3.org/2000/svg">
  <defs>
    <linearGradient id="sky" x1="0" y1="0" x2="0" y2="1">
      <stop offset="0%" stop-color="#b9d7f5"/>
      <stop offset="100%" stop-color="#eef3f8"/>
    </linearGradient>
    <linearGradient id="drive" x1="0" y1="0" x2="1" y2="1">
      <stop offset="0%" stop-color="#c9c3b9"/>
      <stop offset="100%" stop-color="#b5ada1"/>
    </linearGradient>
  </defs>
  <rect width="1400" height="900" fill="url(#sky)"/>
  <rect y="520" width="1400" height="380" fill="#dde3ea"/>
  <rect x="180" y="260" width="620" height="360" rx="12" fill="#444b57"/>
  <rect x="210" y="300" width="240" height="140" rx="6" fill="#2b3039"/>
  <rect x="500" y="300" width="240" height="140" rx="6" fill="#2b3039"/>
  <rect x="240" y="470" width="220" height="110" rx="6" fill="#2b3039"/>
  <rect x="520" y="460" width="240" height="130" rx="6" fill="#2b3039"/>
  <rect x="820" y="350" width="300" height="220" rx="10" fill="#3e4550"/>
  <rect x="870" y="390" width="200" height="140" rx="8" fill="#2b3039"/>
  <path d="M260 880L460 540L920 540L1210 880H260Z" fill="url(#drive)"/>
  <path d="M260 880L460 540L920 540L1210 880" stroke="#9c9488" stroke-width="10"/>
  <circle cx="120" cy="640" r="80" fill="#6b7280"/>
  <circle cx="1280" cy="660" r="70" fill="#737b87"/>
</svg>
